<?xml version="1.0" standalone="no"?>
<!DOCTYPE svg PUBLIC "-//W3C//DTD SVG 20010904//EN"
 "http://www.w3.org/TR/2001/REC-SVG-20010904/DTD/svg10.dtd">
<svg version="1.0" xmlns="http://www.w3.org/2000/svg"
 width="566.000000pt" height="566.000000pt" viewBox="0 0 566.000000 566.000000"
 preserveAspectRatio="xMidYMid meet">
<metadata>
Created by potrace 1.14, written by Peter Selinger 2001-2017
</metadata>
<g transform="translate(0.000000,566.000000) scale(0.100000,-0.100000)"
fill="#000000" stroke="none">
<path d="M2246 5455 c3 -27 7 -61 9 -75 2 -14 7 -47 10 -75 3 -27 7 -66 10
-85 2 -19 7 -60 10 -90 3 -30 8 -71 11 -90 3 -19 7 -53 10 -75 9 -85 15 -141
19 -165 2 -14 6 -52 10 -85 3 -33 8 -71 10 -85 3 -14 7 -52 10 -85 4 -33 8
-71 10 -85 4 -30 13 -106 21 -175 3 -27 8 -63 10 -80 2 -16 6 -52 9 -80 3 -27
7 -63 9 -80 2 -16 7 -57 11 -90 7 -64 9 -85 20 -152 4 -25 3 -43 -3 -43 -8 0
-50 46 -107 118 -11 14 -29 35 -40 46 -11 12 -42 48 -70 81 -27 33 -54 65 -60
71 -5 6 -28 33 -50 59 -22 27 -44 53 -50 59 -5 6 -46 54 -90 106 -44 52 -84
100 -90 107 -26 29 -257 302 -325 383 -25 30 -74 88 -110 130 -117 138 -153
180 -179 215 -44 58 -42 39 5 -47 25 -46 52 -96 60 -113 8 -16 29 -57 47 -90
50 -92 122 -226 173 -322 26 -49 55 -101 64 -118 10 -16 42 -77 73 -135 30
-58 76 -143 102 -190 25 -47 53 -101 63 -120 9 -19 20 -36 25 -38 4 -2 7 -12
7 -22 0 -10 4 -20 8 -22 4 -1 37 -57 72 -123 35 -66 85 -162 112 -212 27 -51
48 -93 46 -93 -7 0 -79 38 -91 48 -7 5 -39 24 -72 42 -33 17 -87 47 -120 66
-33 19 -68 38 -77 41 -10 3 -18 9 -18 14 0 5 -4 9 -9 9 -5 0 -89 45 -188 101
-98 56 -200 113 -228 129 -27 15 -72 41 -100 57 -27 16 -57 32 -65 36 -8 5
-24 13 -35 20 -11 7 -94 54 -185 105 -91 51 -172 97 -180 102 -8 5 -43 25 -76
44 -34 20 -64 36 -68 36 -3 0 15 -19 41 -42 26 -24 54 -50 63 -58 9 -8 58 -53
110 -100 51 -47 105 -96 120 -110 14 -14 69 -63 121 -110 52 -46 101 -91 110
-100 9 -8 53 -49 99 -90 46 -41 100 -91 121 -110 37 -35 162 -148 203 -183 12
-10 62 -56 111 -102 50 -45 102 -94 118 -107 35 -33 34 -38 -5 -28 -18 5 -53
11 -78 14 -49 5 -249 34 -290 42 -14 2 -47 7 -75 10 -27 3 -52 7 -55 9 -3 2
-33 7 -65 10 -33 4 -69 9 -80 11 -11 2 -40 7 -65 10 -25 3 -52 7 -60 9 -8 2
-35 7 -60 10 -25 3 -69 10 -98 15 -29 5 -56 9 -60 8 -6 -2 -41 4 -117 18 -11
2 -40 7 -65 10 -72 10 -88 12 -132 19 -24 4 -55 8 -69 11 -14 2 -41 6 -60 8
-19 3 -47 7 -64 10 -16 2 -66 10 -110 16 -96 14 -121 18 -160 26 -59 12 -9
-13 110 -56 66 -24 125 -47 130 -50 6 -4 24 -10 40 -14 17 -4 44 -13 60 -21
17 -7 100 -38 185 -70 156 -57 218 -79 475 -175 505 -188 658 -244 708 -261
36 -13 49 -28 25 -30 -7 0 -20 -2 -28 -4 -19 -5 -63 -14 -95 -19 -14 -3 -33
-7 -43 -10 -9 -3 -28 -7 -42 -10 -14 -3 -81 -17 -150 -31 -69 -15 -138 -29
-155 -32 -44 -8 -60 -11 -60 -13 0 -2 -16 -5 -60 -14 -16 -3 -41 -8 -55 -11
-28 -7 -59 -13 -92 -19 -13 -2 -67 -14 -122 -26 -54 -12 -106 -23 -115 -25 -9
-2 -72 -15 -141 -30 -69 -15 -136 -29 -150 -31 -30 -6 -265 -56 -415 -89 l-60
-13 70 -1 c39 -1 263 -4 500 -7 359 -4 731 -8 1145 -13 l75 -1 -50 -32 c-27
-18 -122 -80 -210 -138 -88 -58 -164 -107 -170 -109 -5 -2 -24 -15 -41 -28
-17 -12 -36 -23 -42 -23 -7 0 -12 -4 -12 -8 0 -5 -11 -14 -25 -20 -14 -7 -31
-17 -38 -23 -7 -6 -77 -53 -157 -105 -80 -51 -152 -98 -160 -104 -8 -6 -85
-56 -170 -111 -299 -195 -325 -212 -334 -221 -5 -4 42 10 105 32 63 23 146 51
184 64 39 13 135 47 215 76 80 28 168 58 195 67 28 8 55 18 60 21 6 4 15 7 20
9 6 1 37 11 70 23 33 12 148 53 255 90 107 37 260 91 339 119 80 28 146 49
148 47 3 -2 -26 -46 -63 -98 -37 -51 -79 -109 -93 -129 -89 -126 -247 -346
-256 -355 -5 -6 -17 -22 -25 -34 -21 -32 -128 -183 -138 -195 -4 -5 -88 -122
-186 -260 -99 -137 -188 -260 -199 -272 -30 -34 -7 -27 34 10 53 47 148 129
194 168 22 19 47 41 55 49 8 8 40 36 70 61 30 26 67 57 81 70 14 13 72 64 130
113 57 50 111 97 120 105 8 9 42 39 74 66 32 28 63 55 69 60 6 6 43 37 81 70
39 33 72 62 75 65 9 9 93 82 159 140 35 30 73 63 84 73 11 9 22 15 24 13 2 -2
-3 -34 -12 -72 -9 -38 -20 -87 -26 -109 -5 -22 -11 -51 -14 -65 -2 -14 -9 -43
-14 -65 -5 -22 -12 -51 -15 -65 -2 -14 -9 -45 -15 -70 -5 -25 -13 -61 -16 -80
-3 -19 -10 -50 -16 -67 -6 -18 -12 -45 -14 -60 -2 -16 -18 -91 -35 -168 -18
-77 -34 -151 -36 -165 -3 -14 -9 -41 -14 -60 -9 -33 -46 -206 -56 -260 -3 -14
-7 -33 -9 -42 -17 -62 -17 -64 -1 -38 8 14 14 29 14 34 0 5 4 12 9 15 5 3 30
49 57 101 68 133 239 468 361 705 57 110 133 258 169 329 67 130 73 135 81 60
4 -48 15 -129 21 -169 5 -34 12 -90 19 -150 6 -48 10 -82 20 -155 4 -30 9 -71
11 -90 5 -42 13 -100 20 -155 3 -22 7 -49 9 -60 1 -11 6 -47 10 -80 3 -33 8
-71 11 -85 2 -14 6 -45 9 -70 8 -63 16 -130 22 -165 2 -16 6 -46 8 -65 9 -92
18 -156 26 -179 l7 -26 2 25 c1 14 3 34 5 45 3 11 7 38 10 60 2 22 7 49 9 61
2 12 7 45 11 75 3 30 8 61 10 69 5 21 16 96 20 145 2 22 5 40 5 40 3 0 17 86
25 155 2 14 8 59 15 100 6 41 13 88 15 103 2 16 6 40 9 55 3 15 8 52 12 82 3
30 7 57 9 60 1 3 6 32 9 65 4 33 9 67 11 75 2 8 6 35 9 60 3 25 8 54 10 65 2
11 7 42 10 69 4 27 9 53 12 58 6 9 204 -306 204 -323 0 -5 5 -9 10 -9 6 0 10
-5 10 -10 0 -6 8 -23 19 -38 43 -63 201 -324 201 -333 0 -5 5 -9 10 -9 6 0 10
-4 10 -9 0 -12 63 -115 73 -119 4 -2 7 -7 7 -12 0 -4 37 -68 82 -142 121 -198
141 -228 145 -224 3 2 -7 42 -21 87 -14 46 -39 131 -56 189 -17 58 -38 130
-47 160 -10 30 -18 60 -19 66 -1 6 -14 50 -29 97 -15 48 -28 93 -29 99 -3 17
-27 99 -34 118 -3 8 -6 18 -7 23 -2 4 -3 8 -5 10 -1 1 -3 11 -5 22 -3 17 -62
219 -125 424 -11 35 -20 68 -20 74 0 7 72 -43 90 -63 3 -3 55 -46 115 -95 61
-49 117 -94 125 -101 55 -47 117 -98 285 -235 105 -84 199 -161 210 -171 11
-9 74 -60 140 -114 66 -54 122 -101 125 -104 3 -3 39 -32 80 -65 41 -32 80
-64 87 -70 26 -21 43 -36 100 -82 32 -25 61 -51 65 -57 5 -7 8 -7 8 -1 0 6
-10 22 -23 37 -33 39 -48 58 -87 108 -19 25 -40 52 -47 60 -75 93 -275 346
-289 366 -11 14 -24 31 -29 38 -6 6 -66 81 -133 166 -68 85 -131 164 -140 175
-9 11 -30 38 -46 60 -17 22 -33 42 -36 45 -3 3 -33 39 -65 80 -33 41 -65 82
-72 90 -6 8 -40 51 -75 95 -34 44 -66 81 -70 83 -17 7 -7 24 10 17 9 -4 24 -8
32 -10 8 -2 119 -40 245 -85 127 -45 255 -90 285 -100 30 -10 114 -39 185 -65
72 -26 155 -55 185 -65 30 -10 141 -48 245 -85 105 -37 240 -84 300 -105 61
-21 130 -45 155 -53 24 -9 45 -15 47 -13 3 2 -462 297 -481 305 -6 2 -15 8
-21 13 -5 5 -107 70 -225 143 -118 74 -219 138 -225 142 -5 5 -44 29 -85 54
-152 93 -493 309 -489 310 8 3 68 7 209 13 201 9 284 12 705 32 316 14 529 23
678 28 48 2 91 6 94 10 4 3 0 6 -8 7 -8 0 -21 2 -29 4 -8 2 -31 6 -50 9 -19 4
-42 9 -50 11 -8 2 -33 6 -55 10 -22 3 -56 10 -75 15 -19 5 -51 11 -70 14 -19
3 -82 15 -140 27 -58 11 -116 23 -130 25 -14 3 -63 12 -110 20 -116 22 -119
23 -138 28 -9 3 -33 7 -52 10 -19 3 -102 19 -185 35 -82 17 -161 32 -175 35
-84 16 -255 49 -315 60 l-70 13 60 29 c33 16 62 29 65 29 3 1 23 10 45 22 22
11 42 21 45 20 6 0 80 32 100 44 8 5 22 12 30 15 8 3 41 18 74 32 32 15 62 27
65 28 3 0 29 10 56 23 28 13 64 29 80 36 17 8 57 26 90 40 62 28 304 135 365
162 19 8 56 26 83 39 26 13 47 21 47 19 0 -3 16 4 35 15 20 11 42 20 50 20 8
0 15 4 15 10 0 5 3 9 8 8 8 -1 36 10 110 43 26 12 66 30 90 40 44 19 59 35 18
19 -13 -5 -32 -7 -42 -6 -11 2 -23 1 -29 -2 -5 -3 -16 -7 -25 -8 -8 -1 -31 -5
-50 -9 -19 -4 -44 -8 -55 -10 -11 -1 -36 -5 -55 -9 -19 -4 -48 -9 -65 -11 -16
-2 -31 -4 -32 -6 -4 -2 -13 -4 -64 -12 -77 -13 -102 -17 -154 -27 -27 -5 -61
-11 -75 -14 -14 -2 -36 -7 -50 -10 -14 -3 -38 -7 -55 -10 -16 -2 -68 -11 -115
-20 -47 -8 -139 -24 -205 -36 -66 -12 -131 -23 -145 -26 -14 -2 -40 -7 -59
-10 -18 -3 -41 -7 -50 -9 -28 -5 -185 -34 -216 -39 -16 -3 -52 -9 -80 -12
l-50 -7 572 571 c315 315 570 572 568 572 -2 0 -124 -70 -270 -155 -147 -85
-271 -155 -276 -155 -5 0 -9 -4 -9 -9 0 -5 -10 -13 -22 -17 -13 -3 -30 -12
-38 -19 -8 -7 -40 -25 -70 -41 -30 -16 -59 -33 -65 -37 -8 -7 -253 -150 -370
-217 -17 -9 -85 -49 -152 -88 -67 -39 -124 -68 -127 -65 -5 5 8 36 35 83 5 8
12 22 15 30 17 42 73 165 132 290 15 30 27 57 28 60 0 3 16 37 34 75 18 39 34
72 35 75 0 3 22 49 48 103 26 54 47 100 47 102 0 2 21 48 46 102 76 162 115
245 145 311 16 34 42 90 58 125 59 125 103 223 118 257 l14 35 -28 -35 c-15
-19 -72 -93 -127 -165 -54 -71 -109 -143 -121 -160 -47 -59 -134 -174 -290
-380 -87 -115 -207 -273 -265 -350 -59 -77 -148 -195 -200 -262 -51 -68 -94
-123 -96 -123 -3 0 1 120 11 280 10 157 15 244 20 350 3 58 7 141 10 185 5 90
13 221 21 370 2 55 7 134 9 175 2 41 7 127 10 190 3 63 8 134 10 158 2 23 1
42 -4 42 -4 0 -8 -6 -8 -12 -1 -13 -65 -256 -83 -313 -5 -16 -12 -41 -14 -55
-3 -14 -13 -50 -21 -80 -8 -30 -17 -64 -20 -75 -2 -11 -14 -54 -25 -95 -11
-41 -22 -82 -24 -90 -2 -8 -18 -69 -36 -135 -17 -66 -33 -127 -35 -135 -2 -8
-4 -15 -5 -15 -1 0 -3 -7 -5 -15 -2 -8 -6 -24 -9 -35 -5 -21 -31 -119 -66
-250 -12 -44 -24 -91 -26 -104 -3 -14 -7 -28 -10 -33 -3 -5 -7 -21 -10 -36 -2
-15 -9 -38 -14 -52 -5 -14 -11 -36 -14 -50 -2 -14 -9 -38 -16 -55 -6 -16 -11
-31 -11 -32 1 -2 1 -9 0 -15 0 -10 -61 153 -73 197 -2 6 -6 17 -9 25 -6 15
-56 161 -187 545 -37 110 -91 268 -120 350 -28 83 -56 166 -62 185 -6 19 -13
40 -16 45 -4 6 -7 15 -8 20 -2 12 -77 226 -104 300 l-19 50 5 -50z"/>
</g>
</svg>
