<?xml version="1.0" encoding="UTF-8" standalone="no"?>
<!-- Created with Inkscape (http://www.inkscape.org/) -->

<svg
   version="1.1"
   id="svg1"
   width="282.61688"
   height="269.25876"
   viewBox="0 0 282.61688 269.25876"
   sodipodi:docname="v2-146e31e12fc8f0e4143ab757e91d7075_r.jpg"
   inkscape:export-filename="v2-146e31e12fc8f0e4143ab757e91d7075_r.svg"
   inkscape:export-xdpi="96"
   inkscape:export-ydpi="96"
   xmlns:inkscape="http://www.inkscape.org/namespaces/inkscape"
   xmlns:sodipodi="http://sodipodi.sourceforge.net/DTD/sodipodi-0.dtd"
   xmlns="http://www.w3.org/2000/svg"
   xmlns:svg="http://www.w3.org/2000/svg">
  <defs
     id="defs1" />
  <sodipodi:namedview
     id="namedview1"
     pagecolor="#ffffff"
     bordercolor="#000000"
     borderopacity="0.25"
     inkscape:showpageshadow="2"
     inkscape:pageopacity="0.0"
     inkscape:pagecheckerboard="0"
     inkscape:deskcolor="#d1d1d1"
     showgrid="false" />
  <g
     inkscape:groupmode="layer"
     inkscape:label="Image"
     id="g1"
     transform="translate(-184.18507,-11.756494)">
    <path
       style="opacity:1;fill:#ffffff;fill-opacity:1;stroke-width:1.00157;stroke-dasharray:none"
       d="m 245.04221,28.123377 45.87337,85.522723 -76.9935,-43.568178 63.62337,57.860388 -93.20218,-13.92665 91.12751,33.75133 -91.28571,19.36363 90.13311,0.92208 -71.54383,46.78779 81.33794,-28.52533 -50.20458,69.92781 64.22274,-56.07265 -15.64818,71.55783 34.7194,-67.64579 9.94312,76.93689 11.08413,-74.98086 39.28345,64.05974 -20.86424,-70.90582 72.69884,59.49569 -57.37666,-72.37284 86.717,30.31835 -78.2409,-49.22657 86.35554,-3.84937 -84.37013,-16.36688 78.95292,-35.03896 -85.98377,15.4448 57.97565,-57.975647 -71.23052,41.493507 38.9578,-84.25487 -57.16883,75.37987 4.95617,-90.017858 -23.05195,86.560066 -29.85228,-87.021104 10.6039,88.980516 z"
       id="path1"
       sodipodi:nodetypes="ccccccccccccccccccccccccccccccccccc" />
  </g>
</svg>
